<svg xmlns="http://www.w3.org/2000/svg" xmlns:xlink="http://www.w3.org/1999/xlink" width="500" zoomAndPan="magnify" viewBox="0 0 375 112.499997" height="150" preserveAspectRatio="xMidYMid meet" version="1.0"><defs><g/><clipPath id="b8ef68fa97"><rect x="0" width="174" y="0" height="68"/></clipPath><clipPath id="cb3b432b23"><path d="M 67.980469 21.820312 L 136.675781 21.820312 L 136.675781 90.515625 L 67.980469 90.515625 Z M 67.980469 21.820312 " clip-rule="nonzero"/></clipPath><clipPath id="63b3057861"><path d="M 12 0 L 152 0 L 152 101 L 12 101 Z M 12 0 " clip-rule="nonzero"/></clipPath><clipPath id="f510202e9b"><path d="M 12.03125 22.980469 L 87.398438 -39.371094 L 151.65625 38.296875 L 76.289062 100.648438 Z M 12.03125 22.980469 " clip-rule="nonzero"/></clipPath><clipPath id="61d9f0376e"><path d="M 12.03125 22.980469 L 87.398438 -39.371094 L 151.65625 38.296875 L 76.289062 100.648438 Z M 12.03125 22.980469 " clip-rule="nonzero"/></clipPath></defs><g transform="matrix(1, 0, 0, 1, 149, 29)"><g clip-path="url(#b8ef68fa97)"><g fill="#000000" fill-opacity="1"><g transform="translate(0.37656, 52.992742)"><g><path d="M 9.984375 -4.328125 L 29.03125 -4.328125 L 29.03125 0 L 4.65625 0 L 4.65625 -40.171875 L 9.984375 -40.171875 Z M 9.984375 -4.328125 "/></g></g></g><g fill="#000000" fill-opacity="1"><g transform="translate(28.128611, 52.992742)"><g><path d="M 10.34375 0 L 5.046875 0 L 5.046875 -40.171875 L 10.34375 -40.171875 Z M 10.34375 0 "/></g></g></g><g fill="#000000" fill-opacity="1"><g transform="translate(40.841774, 52.992742)"><g><path d="M 35.546875 0 L 30.21875 0 L 9.984375 -30.96875 L 9.984375 0 L 4.65625 0 L 4.65625 -40.171875 L 9.984375 -40.171875 L 30.265625 -9.078125 L 30.265625 -40.171875 L 35.546875 -40.171875 Z M 35.546875 0 "/></g></g></g><g fill="#000000" fill-opacity="1"><g transform="translate(78.472585, 52.992742)"><g><path d="M 27.375 -18.578125 L 9.96875 -18.578125 L 9.96875 -4.328125 L 30.1875 -4.328125 L 30.1875 0 L 4.65625 0 L 4.65625 -40.171875 L 29.90625 -40.171875 L 29.90625 -35.8125 L 9.96875 -35.8125 L 9.96875 -22.90625 L 27.375 -22.90625 Z M 27.375 -18.578125 "/></g></g></g><g fill="#000000" fill-opacity="1"><g transform="translate(107.935482, 52.992742)"><g><path d="M 26.84375 -10.484375 L 10.015625 -10.484375 L 6.234375 0 L 0.765625 0 L 16.109375 -40.171875 L 20.75 -40.171875 L 36.125 0 L 30.6875 0 Z M 11.625 -14.84375 L 25.28125 -14.84375 L 18.4375 -33.640625 Z M 11.625 -14.84375 "/></g></g></g><g fill="#000000" fill-opacity="1"><g transform="translate(142.144599, 52.992742)"><g><path d="M 9.984375 -4.328125 L 29.03125 -4.328125 L 29.03125 0 L 4.65625 0 L 4.65625 -40.171875 L 9.984375 -40.171875 Z M 9.984375 -4.328125 "/></g></g></g></g></g><g clip-path="url(#cb3b432b23)"><path fill="#000000" d="M 67.980469 21.820312 L 136.667969 21.820312 L 136.667969 90.507812 L 67.980469 90.507812 Z M 67.980469 21.820312 " fill-opacity="1" fill-rule="nonzero"/></g><g clip-path="url(#63b3057861)"><g clip-path="url(#f510202e9b)"><g clip-path="url(#61d9f0376e)"><path fill="#ffffff" d="M 151.585938 38.410156 L 76.316406 100.683594 L 73.804688 97.648438 L 149.074219 35.378906 Z M 142.21875 27.09375 L 66.953125 89.363281 L 69.257812 92.148438 L 144.527344 29.878906 Z M 135.367188 18.808594 L 60.097656 81.078125 L 62.203125 83.621094 L 137.46875 21.347656 Z M 128.511719 10.523438 L 53.246094 72.796875 L 55.140625 75.085938 L 130.410156 12.816406 Z M 121.65625 2.238281 L 46.390625 64.507812 L 48.082031 66.554688 L 123.351562 4.285156 Z M 114.804688 -6.042969 L 39.539062 56.226562 L 41.027344 58.023438 L 116.292969 -4.246094 Z M 107.949219 -14.328125 L 32.683594 47.941406 L 33.96875 49.492188 L 109.234375 -12.777344 Z M 101.097656 -22.613281 L 25.828125 39.65625 L 26.90625 40.960938 L 102.175781 -21.308594 Z M 94.242188 -30.898438 L 18.976562 31.371094 L 19.851562 32.429688 L 95.117188 -29.839844 Z M 87.390625 -39.183594 L 12.121094 23.089844 L 12.792969 23.898438 L 88.058594 -38.371094 Z M 87.390625 -39.183594 " fill-opacity="1" fill-rule="nonzero"/></g></g></g></svg>