<svg xmlns="http://www.w3.org/2000/svg" xmlns:xlink="http://www.w3.org/1999/xlink" width="500" zoomAndPan="magnify" viewBox="0 0 375 112.499997" height="150" preserveAspectRatio="xMidYMid meet" version="1.0"><defs><g/><clipPath id="d1d01ae9b8"><rect x="0" width="235" y="0" height="91"/></clipPath><clipPath id="cf4b146cf1"><rect x="0" width="135" y="0" height="12"/></clipPath></defs><g transform="matrix(1, 0, 0, 1, 72, 10)"><g clip-path="url(#d1d01ae9b8)"><g fill="#000000" fill-opacity="1"><g transform="translate(1.680941, 71.393731)"><g><path d="M 13.5 -5.859375 L 39.234375 -5.859375 L 39.234375 0 L 6.296875 0 L 6.296875 -54.296875 L 13.5 -54.296875 Z M 13.5 -5.859375 "/></g></g></g><g fill="#000000" fill-opacity="1"><g transform="translate(39.182106, 71.393731)"><g><path d="M 13.984375 0 L 6.828125 0 L 6.828125 -54.296875 L 13.984375 -54.296875 Z M 13.984375 0 "/></g></g></g><g fill="#000000" fill-opacity="1"><g transform="translate(56.361321, 71.393731)"><g><path d="M 48.03125 0 L 40.828125 0 L 13.5 -41.84375 L 13.5 0 L 6.296875 0 L 6.296875 -54.296875 L 13.5 -54.296875 L 40.90625 -12.265625 L 40.90625 -54.296875 L 48.03125 -54.296875 Z M 48.03125 0 "/></g></g></g><g fill="#000000" fill-opacity="1"><g transform="translate(107.211589, 71.393731)"><g><path d="M 37 -25.09375 L 13.46875 -25.09375 L 13.46875 -5.859375 L 40.796875 -5.859375 L 40.796875 0 L 6.296875 0 L 6.296875 -54.296875 L 40.421875 -54.296875 L 40.421875 -48.40625 L 13.46875 -48.40625 L 13.46875 -30.953125 L 37 -30.953125 Z M 37 -25.09375 "/></g></g></g><g fill="#000000" fill-opacity="1"><g transform="translate(147.02461, 71.393731)"><g><path d="M 36.28125 -14.171875 L 13.53125 -14.171875 L 8.421875 0 L 1.046875 0 L 21.78125 -54.296875 L 28.046875 -54.296875 L 48.8125 0 L 41.46875 0 Z M 15.703125 -20.0625 L 34.15625 -20.0625 L 24.90625 -45.453125 Z M 15.703125 -20.0625 "/></g></g></g><g fill="#000000" fill-opacity="1"><g transform="translate(193.251167, 71.393731)"><g><path d="M 13.5 -5.859375 L 39.234375 -5.859375 L 39.234375 0 L 6.296875 0 L 6.296875 -54.296875 L 13.5 -54.296875 Z M 13.5 -5.859375 "/></g></g></g></g></g><g transform="matrix(1, 0, 0, 1, 159, 83)"><g clip-path="url(#cf4b146cf1)"><g fill="#737373" fill-opacity="1"><g transform="translate(0.818293, 8.61841)"><g><path d="M 2.3125 0.078125 C 2.03125 0.078125 1.757812 0.0351562 1.5 -0.046875 C 1.25 -0.128906 1.023438 -0.25 0.828125 -0.40625 C 0.628906 -0.5625 0.472656 -0.753906 0.359375 -0.984375 C 0.242188 -1.210938 0.1875 -1.476562 0.1875 -1.78125 L 1.125 -1.953125 C 1.125 -1.566406 1.238281 -1.273438 1.46875 -1.078125 C 1.695312 -0.878906 2.007812 -0.78125 2.40625 -0.78125 C 2.675781 -0.78125 2.914062 -0.828125 3.125 -0.921875 C 3.332031 -1.023438 3.492188 -1.160156 3.609375 -1.328125 C 3.722656 -1.492188 3.78125 -1.6875 3.78125 -1.90625 C 3.78125 -2.082031 3.742188 -2.234375 3.671875 -2.359375 C 3.609375 -2.492188 3.515625 -2.609375 3.390625 -2.703125 C 3.273438 -2.796875 3.144531 -2.882812 3 -2.96875 C 2.851562 -3.050781 2.703125 -3.128906 2.546875 -3.203125 C 2.390625 -3.273438 2.234375 -3.359375 2.078125 -3.453125 C 1.929688 -3.546875 1.800781 -3.648438 1.6875 -3.765625 C 1.570312 -3.878906 1.476562 -4.015625 1.40625 -4.171875 C 1.332031 -4.335938 1.296875 -4.53125 1.296875 -4.75 C 1.296875 -5.007812 1.347656 -5.25 1.453125 -5.46875 C 1.566406 -5.695312 1.71875 -5.894531 1.90625 -6.0625 C 2.101562 -6.238281 2.332031 -6.367188 2.59375 -6.453125 C 2.851562 -6.546875 3.128906 -6.59375 3.421875 -6.59375 C 3.703125 -6.59375 3.96875 -6.550781 4.21875 -6.46875 C 4.46875 -6.382812 4.679688 -6.257812 4.859375 -6.09375 C 5.035156 -5.925781 5.160156 -5.722656 5.234375 -5.484375 L 4.453125 -5.109375 C 4.410156 -5.253906 4.335938 -5.378906 4.234375 -5.484375 C 4.128906 -5.585938 4.003906 -5.664062 3.859375 -5.71875 C 3.710938 -5.769531 3.5625 -5.796875 3.40625 -5.796875 C 3.207031 -5.796875 3.019531 -5.753906 2.84375 -5.671875 C 2.664062 -5.597656 2.519531 -5.484375 2.40625 -5.328125 C 2.300781 -5.179688 2.25 -5.015625 2.25 -4.828125 C 2.25 -4.648438 2.289062 -4.5 2.375 -4.375 C 2.46875 -4.25 2.585938 -4.132812 2.734375 -4.03125 C 2.890625 -3.9375 3.050781 -3.84375 3.21875 -3.75 C 3.394531 -3.664062 3.570312 -3.570312 3.75 -3.46875 C 3.925781 -3.375 4.085938 -3.257812 4.234375 -3.125 C 4.390625 -3 4.507812 -2.84375 4.59375 -2.65625 C 4.6875 -2.46875 4.734375 -2.242188 4.734375 -1.984375 C 4.734375 -1.691406 4.671875 -1.414062 4.546875 -1.15625 C 4.421875 -0.90625 4.242188 -0.6875 4.015625 -0.5 C 3.796875 -0.320312 3.539062 -0.179688 3.25 -0.078125 C 2.957031 0.0234375 2.644531 0.078125 2.3125 0.078125 Z M 2.3125 0.078125 "/></g></g></g><g fill="#737373" fill-opacity="1"><g transform="translate(6.743876, 8.61841)"><g><path d="M 2.09375 0.09375 C 1.75 0.09375 1.445312 0.03125 1.1875 -0.09375 C 0.9375 -0.226562 0.734375 -0.40625 0.578125 -0.625 C 0.421875 -0.851562 0.320312 -1.113281 0.28125 -1.40625 C 0.238281 -1.707031 0.257812 -2.023438 0.34375 -2.359375 C 0.414062 -2.679688 0.535156 -2.976562 0.703125 -3.25 C 0.867188 -3.53125 1.070312 -3.773438 1.3125 -3.984375 C 1.5625 -4.191406 1.832031 -4.351562 2.125 -4.46875 C 2.425781 -4.59375 2.742188 -4.65625 3.078125 -4.65625 C 3.421875 -4.65625 3.71875 -4.585938 3.96875 -4.453125 C 4.226562 -4.328125 4.429688 -4.148438 4.578125 -3.921875 C 4.734375 -3.703125 4.832031 -3.441406 4.875 -3.140625 C 4.925781 -2.847656 4.910156 -2.53125 4.828125 -2.1875 C 4.753906 -1.875 4.628906 -1.578125 4.453125 -1.296875 C 4.285156 -1.023438 4.082031 -0.785156 3.84375 -0.578125 C 3.601562 -0.367188 3.332031 -0.203125 3.03125 -0.078125 C 2.738281 0.0351562 2.425781 0.09375 2.09375 0.09375 Z M 2.15625 -0.6875 C 2.40625 -0.6875 2.625 -0.726562 2.8125 -0.8125 C 3.007812 -0.90625 3.175781 -1.03125 3.3125 -1.1875 C 3.457031 -1.34375 3.578125 -1.519531 3.671875 -1.71875 C 3.773438 -1.925781 3.851562 -2.140625 3.90625 -2.359375 C 3.957031 -2.554688 3.976562 -2.742188 3.96875 -2.921875 C 3.96875 -3.109375 3.929688 -3.273438 3.859375 -3.421875 C 3.796875 -3.566406 3.691406 -3.675781 3.546875 -3.75 C 3.410156 -3.832031 3.226562 -3.875 3 -3.875 C 2.757812 -3.875 2.539062 -3.828125 2.34375 -3.734375 C 2.15625 -3.648438 1.988281 -3.53125 1.84375 -3.375 C 1.695312 -3.21875 1.578125 -3.035156 1.484375 -2.828125 C 1.390625 -2.628906 1.316406 -2.414062 1.265625 -2.1875 C 1.210938 -1.988281 1.1875 -1.800781 1.1875 -1.625 C 1.195312 -1.445312 1.234375 -1.285156 1.296875 -1.140625 C 1.367188 -0.992188 1.472656 -0.878906 1.609375 -0.796875 C 1.742188 -0.722656 1.925781 -0.6875 2.15625 -0.6875 Z M 2.15625 -0.6875 "/></g></g></g><g fill="#737373" fill-opacity="1"><g transform="translate(12.674057, 8.61841)"><g><path d="M 0.4375 0 L 1.328125 -3.859375 L 0.484375 -3.859375 L 0.65625 -4.59375 L 1.5 -4.59375 L 1.6875 -5.375 C 1.78125 -5.78125 1.960938 -6.082031 2.234375 -6.28125 C 2.515625 -6.488281 2.859375 -6.59375 3.265625 -6.59375 C 3.421875 -6.59375 3.5625 -6.570312 3.6875 -6.53125 C 3.820312 -6.5 3.941406 -6.457031 4.046875 -6.40625 L 3.640625 -5.734375 C 3.566406 -5.773438 3.492188 -5.800781 3.421875 -5.8125 C 3.347656 -5.832031 3.28125 -5.84375 3.21875 -5.84375 C 3.0625 -5.84375 2.921875 -5.796875 2.796875 -5.703125 C 2.679688 -5.609375 2.601562 -5.46875 2.5625 -5.28125 L 2.40625 -4.59375 L 3.609375 -4.59375 L 3.4375 -3.859375 L 2.234375 -3.859375 L 1.34375 0 Z M 0.4375 0 "/></g></g></g><g fill="#737373" fill-opacity="1"><g transform="translate(16.583127, 8.61841)"><g><path d="M 1.671875 0.09375 C 1.378906 0.09375 1.144531 0.0351562 0.96875 -0.078125 C 0.800781 -0.191406 0.691406 -0.351562 0.640625 -0.5625 C 0.597656 -0.769531 0.601562 -1.007812 0.65625 -1.28125 L 1.25 -3.859375 L 0.53125 -3.859375 L 0.6875 -4.59375 L 1.4375 -4.59375 L 1.671875 -5.6875 L 2.703125 -6.40625 L 2.296875 -4.59375 L 3.484375 -4.59375 L 3.3125 -3.859375 L 2.125 -3.859375 L 1.53125 -1.296875 C 1.5 -1.140625 1.492188 -1.015625 1.515625 -0.921875 C 1.546875 -0.828125 1.59375 -0.757812 1.65625 -0.71875 C 1.726562 -0.6875 1.8125 -0.671875 1.90625 -0.671875 C 2.019531 -0.671875 2.128906 -0.6875 2.234375 -0.71875 C 2.347656 -0.75 2.441406 -0.785156 2.515625 -0.828125 L 2.390625 -0.015625 C 2.316406 0.015625 2.210938 0.0390625 2.078125 0.0625 C 1.941406 0.0820312 1.804688 0.09375 1.671875 0.09375 Z M 1.671875 0.09375 "/></g></g></g><g fill="#737373" fill-opacity="1"><g transform="translate(20.620813, 8.61841)"><g><path d="M 0.96875 0.015625 L 0.6875 -4.59375 L 1.625 -4.59375 L 1.71875 -1.28125 L 3.453125 -4.59375 L 4.25 -4.59375 L 4.4375 -1.296875 L 6.078125 -4.59375 L 7.03125 -4.59375 L 4.625 0 L 3.796875 0 L 3.59375 -3.390625 L 1.796875 0.015625 Z M 0.96875 0.015625 "/></g></g></g><g fill="#737373" fill-opacity="1"><g transform="translate(28.011706, 8.61841)"><g><path d="M 4.1875 -4.59375 L 5.09375 -4.59375 L 4.03125 0 L 3.1875 0 L 3.265625 -0.515625 C 3.066406 -0.316406 2.84375 -0.164062 2.59375 -0.0625 C 2.351562 0.0390625 2.085938 0.09375 1.796875 0.09375 C 1.484375 0.09375 1.21875 0.03125 1 -0.09375 C 0.789062 -0.226562 0.625 -0.410156 0.5 -0.640625 C 0.382812 -0.867188 0.316406 -1.128906 0.296875 -1.421875 C 0.285156 -1.722656 0.316406 -2.046875 0.390625 -2.390625 C 0.460938 -2.703125 0.570312 -2.992188 0.71875 -3.265625 C 0.863281 -3.546875 1.039062 -3.789062 1.25 -4 C 1.457031 -4.21875 1.6875 -4.382812 1.9375 -4.5 C 2.195312 -4.625 2.476562 -4.6875 2.78125 -4.6875 C 3.082031 -4.6875 3.335938 -4.625 3.546875 -4.5 C 3.765625 -4.382812 3.929688 -4.222656 4.046875 -4.015625 Z M 3.75 -2.390625 C 3.789062 -2.585938 3.8125 -2.773438 3.8125 -2.953125 C 3.8125 -3.128906 3.78125 -3.285156 3.71875 -3.421875 C 3.664062 -3.566406 3.570312 -3.675781 3.4375 -3.75 C 3.3125 -3.832031 3.144531 -3.875 2.9375 -3.875 C 2.71875 -3.875 2.515625 -3.828125 2.328125 -3.734375 C 2.148438 -3.648438 1.988281 -3.53125 1.84375 -3.375 C 1.707031 -3.226562 1.585938 -3.050781 1.484375 -2.84375 C 1.390625 -2.644531 1.320312 -2.4375 1.28125 -2.21875 C 1.207031 -1.945312 1.1875 -1.695312 1.21875 -1.46875 C 1.25 -1.238281 1.332031 -1.054688 1.46875 -0.921875 C 1.613281 -0.796875 1.820312 -0.734375 2.09375 -0.734375 C 2.394531 -0.734375 2.65625 -0.804688 2.875 -0.953125 C 3.09375 -1.097656 3.273438 -1.296875 3.421875 -1.546875 C 3.566406 -1.796875 3.675781 -2.078125 3.75 -2.390625 Z M 3.75 -2.390625 "/></g></g></g><g fill="#737373" fill-opacity="1"><g transform="translate(34.052129, 8.61841)"><g><path d="M 0.203125 0 L 1.25 -4.59375 L 2.125 -4.59375 L 1.96875 -3.84375 C 2.09375 -4.039062 2.226562 -4.195312 2.375 -4.3125 C 2.53125 -4.4375 2.6875 -4.523438 2.84375 -4.578125 C 3.007812 -4.640625 3.164062 -4.671875 3.3125 -4.671875 C 3.457031 -4.671875 3.609375 -4.644531 3.765625 -4.59375 C 3.929688 -4.539062 4.0625 -4.472656 4.15625 -4.390625 L 3.65625 -3.671875 C 3.5625 -3.734375 3.46875 -3.773438 3.375 -3.796875 C 3.28125 -3.816406 3.191406 -3.828125 3.109375 -3.828125 C 2.867188 -3.828125 2.644531 -3.753906 2.4375 -3.609375 C 2.238281 -3.460938 2.0625 -3.257812 1.90625 -3 C 1.75 -2.738281 1.632812 -2.441406 1.5625 -2.109375 L 1.078125 0 Z M 0.203125 0 "/></g></g></g><g fill="#737373" fill-opacity="1"><g transform="translate(38.402059, 8.61841)"><g><path d="M 2.03125 0.0625 C 1.664062 0.0625 1.359375 0 1.109375 -0.125 C 0.859375 -0.257812 0.664062 -0.4375 0.53125 -0.65625 C 0.394531 -0.882812 0.3125 -1.144531 0.28125 -1.4375 C 0.257812 -1.726562 0.285156 -2.035156 0.359375 -2.359375 C 0.421875 -2.648438 0.523438 -2.929688 0.671875 -3.203125 C 0.816406 -3.484375 1 -3.734375 1.21875 -3.953125 C 1.445312 -4.171875 1.703125 -4.34375 1.984375 -4.46875 C 2.265625 -4.59375 2.578125 -4.65625 2.921875 -4.65625 C 3.242188 -4.65625 3.515625 -4.609375 3.734375 -4.515625 C 3.953125 -4.421875 4.125 -4.289062 4.25 -4.125 C 4.375 -3.96875 4.460938 -3.785156 4.515625 -3.578125 C 4.566406 -3.367188 4.582031 -3.144531 4.5625 -2.90625 C 4.550781 -2.664062 4.519531 -2.421875 4.46875 -2.171875 C 4.457031 -2.160156 4.441406 -2.128906 4.421875 -2.078125 C 4.410156 -2.035156 4.398438 -2 4.390625 -1.96875 L 1.203125 -1.96875 C 1.160156 -1.726562 1.160156 -1.519531 1.203125 -1.34375 C 1.253906 -1.164062 1.351562 -1.023438 1.5 -0.921875 C 1.644531 -0.816406 1.84375 -0.765625 2.09375 -0.765625 C 2.375 -0.765625 2.617188 -0.796875 2.828125 -0.859375 C 3.046875 -0.929688 3.257812 -1.054688 3.46875 -1.234375 L 4 -0.65625 C 3.675781 -0.382812 3.351562 -0.195312 3.03125 -0.09375 C 2.71875 0.0078125 2.382812 0.0625 2.03125 0.0625 Z M 1.359375 -2.640625 L 3.71875 -2.640625 C 3.789062 -3.046875 3.757812 -3.351562 3.625 -3.5625 C 3.488281 -3.78125 3.234375 -3.890625 2.859375 -3.890625 C 2.609375 -3.890625 2.382812 -3.832031 2.1875 -3.71875 C 1.988281 -3.601562 1.816406 -3.445312 1.671875 -3.25 C 1.535156 -3.0625 1.429688 -2.859375 1.359375 -2.640625 Z M 1.359375 -2.640625 "/></g></g></g><g fill="#737373" fill-opacity="1"><g transform="translate(43.983139, 8.61841)"><g/></g></g><g fill="#737373" fill-opacity="1"><g transform="translate(47.27669, 8.61841)"><g><path d="M 5.65625 -3.0625 C 5.5625 -2.75 5.4375 -2.445312 5.28125 -2.15625 C 5.132812 -1.863281 4.96875 -1.597656 4.78125 -1.359375 L 5.5 -0.25 L 4.78125 0.296875 L 4.140625 -0.703125 C 3.828125 -0.453125 3.488281 -0.253906 3.125 -0.109375 C 2.757812 0.0234375 2.375 0.09375 1.96875 0.09375 C 1.6875 0.09375 1.429688 0.0625 1.203125 0 C 0.972656 -0.0703125 0.78125 -0.175781 0.625 -0.3125 C 0.46875 -0.457031 0.359375 -0.628906 0.296875 -0.828125 C 0.242188 -1.023438 0.25 -1.257812 0.3125 -1.53125 C 0.363281 -1.78125 0.457031 -2.003906 0.59375 -2.203125 C 0.726562 -2.398438 0.882812 -2.578125 1.0625 -2.734375 C 1.25 -2.890625 1.453125 -3.035156 1.671875 -3.171875 C 1.890625 -3.304688 2.109375 -3.4375 2.328125 -3.5625 C 2.273438 -3.65625 2.210938 -3.757812 2.140625 -3.875 C 2.078125 -3.988281 2.019531 -4.113281 1.96875 -4.25 C 1.914062 -4.394531 1.878906 -4.546875 1.859375 -4.703125 C 1.835938 -4.867188 1.847656 -5.03125 1.890625 -5.1875 C 1.941406 -5.40625 2.03125 -5.597656 2.15625 -5.765625 C 2.289062 -5.941406 2.445312 -6.085938 2.625 -6.203125 C 2.800781 -6.328125 2.992188 -6.421875 3.203125 -6.484375 C 3.410156 -6.546875 3.617188 -6.578125 3.828125 -6.578125 C 4.054688 -6.578125 4.257812 -6.535156 4.4375 -6.453125 C 4.625 -6.378906 4.773438 -6.269531 4.890625 -6.125 C 5.003906 -5.988281 5.082031 -5.828125 5.125 -5.640625 C 5.164062 -5.453125 5.160156 -5.25 5.109375 -5.03125 C 5.054688 -4.769531 4.945312 -4.539062 4.78125 -4.34375 C 4.625 -4.144531 4.429688 -3.960938 4.203125 -3.796875 C 3.984375 -3.628906 3.75 -3.472656 3.5 -3.328125 L 4.328125 -2.046875 C 4.441406 -2.234375 4.546875 -2.425781 4.640625 -2.625 C 4.734375 -2.820312 4.804688 -3.023438 4.859375 -3.234375 Z M 2.671875 -5.015625 C 2.648438 -4.898438 2.65625 -4.78125 2.6875 -4.65625 C 2.71875 -4.53125 2.765625 -4.40625 2.828125 -4.28125 C 2.890625 -4.15625 2.953125 -4.035156 3.015625 -3.921875 C 3.242188 -4.046875 3.453125 -4.171875 3.640625 -4.296875 C 3.828125 -4.421875 3.984375 -4.554688 4.109375 -4.703125 C 4.242188 -4.847656 4.328125 -5.007812 4.359375 -5.1875 C 4.390625 -5.3125 4.382812 -5.425781 4.34375 -5.53125 C 4.3125 -5.632812 4.242188 -5.710938 4.140625 -5.765625 C 4.046875 -5.828125 3.929688 -5.859375 3.796875 -5.859375 C 3.640625 -5.859375 3.484375 -5.828125 3.328125 -5.765625 C 3.171875 -5.703125 3.03125 -5.601562 2.90625 -5.46875 C 2.789062 -5.34375 2.710938 -5.191406 2.671875 -5.015625 Z M 2.03125 -0.671875 C 2.363281 -0.671875 2.671875 -0.734375 2.953125 -0.859375 C 3.234375 -0.984375 3.492188 -1.148438 3.734375 -1.359375 L 2.734375 -2.90625 C 2.472656 -2.757812 2.226562 -2.609375 2 -2.453125 C 1.769531 -2.304688 1.570312 -2.144531 1.40625 -1.96875 C 1.25 -1.789062 1.144531 -1.585938 1.09375 -1.359375 C 1.0625 -1.191406 1.082031 -1.054688 1.15625 -0.953125 C 1.226562 -0.859375 1.34375 -0.785156 1.5 -0.734375 C 1.65625 -0.691406 1.832031 -0.671875 2.03125 -0.671875 Z M 2.03125 -0.671875 "/></g></g></g><g fill="#737373" fill-opacity="1"><g transform="translate(54.336855, 8.61841)"><g/></g></g><g fill="#737373" fill-opacity="1"><g transform="translate(57.630405, 8.61841)"><g><path d="M 3.03125 0.09375 C 2.601562 0.09375 2.238281 0.0351562 1.9375 -0.078125 C 1.632812 -0.203125 1.382812 -0.367188 1.1875 -0.578125 C 0.988281 -0.796875 0.84375 -1.046875 0.75 -1.328125 C 0.65625 -1.617188 0.609375 -1.929688 0.609375 -2.265625 C 0.609375 -2.609375 0.648438 -2.960938 0.734375 -3.328125 C 0.816406 -3.679688 0.929688 -4.019531 1.078125 -4.34375 C 1.222656 -4.664062 1.40625 -4.960938 1.625 -5.234375 C 1.84375 -5.515625 2.09375 -5.753906 2.375 -5.953125 C 2.65625 -6.160156 2.96875 -6.320312 3.3125 -6.4375 C 3.664062 -6.550781 4.046875 -6.609375 4.453125 -6.609375 C 4.878906 -6.609375 5.257812 -6.535156 5.59375 -6.390625 C 5.925781 -6.253906 6.195312 -6.050781 6.40625 -5.78125 C 6.625 -5.507812 6.757812 -5.171875 6.8125 -4.765625 L 5.890625 -4.5 C 5.867188 -4.8125 5.789062 -5.0625 5.65625 -5.25 C 5.519531 -5.4375 5.335938 -5.570312 5.109375 -5.65625 C 4.890625 -5.738281 4.640625 -5.78125 4.359375 -5.78125 C 3.984375 -5.78125 3.644531 -5.707031 3.34375 -5.5625 C 3.039062 -5.425781 2.773438 -5.238281 2.546875 -5 C 2.316406 -4.757812 2.125 -4.484375 1.96875 -4.171875 C 1.820312 -3.867188 1.710938 -3.550781 1.640625 -3.21875 C 1.554688 -2.882812 1.519531 -2.566406 1.53125 -2.265625 C 1.539062 -1.972656 1.597656 -1.710938 1.703125 -1.484375 C 1.816406 -1.265625 1.988281 -1.09375 2.21875 -0.96875 C 2.445312 -0.84375 2.742188 -0.78125 3.109375 -0.78125 C 3.566406 -0.78125 3.976562 -0.882812 4.34375 -1.09375 C 4.71875 -1.300781 5.050781 -1.640625 5.34375 -2.109375 L 6.125 -1.671875 C 5.738281 -1.085938 5.273438 -0.644531 4.734375 -0.34375 C 4.203125 -0.0507812 3.632812 0.09375 3.03125 0.09375 Z M 3.03125 0.09375 "/></g></g></g><g fill="#737373" fill-opacity="1"><g transform="translate(64.956989, 8.61841)"><g><path d="M 1.078125 0.09375 C 0.742188 0.09375 0.523438 0.00390625 0.421875 -0.171875 C 0.328125 -0.359375 0.320312 -0.625 0.40625 -0.96875 L 1.6875 -6.5 L 2.578125 -6.5 L 1.296875 -0.96875 C 1.273438 -0.863281 1.28125 -0.789062 1.3125 -0.75 C 1.351562 -0.707031 1.425781 -0.6875 1.53125 -0.6875 C 1.570312 -0.6875 1.625 -0.691406 1.6875 -0.703125 C 1.757812 -0.722656 1.828125 -0.738281 1.890625 -0.75 L 1.78125 0.015625 C 1.675781 0.0351562 1.554688 0.0507812 1.421875 0.0625 C 1.296875 0.0820312 1.179688 0.09375 1.078125 0.09375 Z M 1.078125 0.09375 "/></g></g></g><g fill="#737373" fill-opacity="1"><g transform="translate(68.222979, 8.61841)"><g><path d="M 2.09375 0.09375 C 1.75 0.09375 1.445312 0.03125 1.1875 -0.09375 C 0.9375 -0.226562 0.734375 -0.40625 0.578125 -0.625 C 0.421875 -0.851562 0.320312 -1.113281 0.28125 -1.40625 C 0.238281 -1.707031 0.257812 -2.023438 0.34375 -2.359375 C 0.414062 -2.679688 0.535156 -2.976562 0.703125 -3.25 C 0.867188 -3.53125 1.070312 -3.773438 1.3125 -3.984375 C 1.5625 -4.191406 1.832031 -4.351562 2.125 -4.46875 C 2.425781 -4.59375 2.742188 -4.65625 3.078125 -4.65625 C 3.421875 -4.65625 3.71875 -4.585938 3.96875 -4.453125 C 4.226562 -4.328125 4.429688 -4.148438 4.578125 -3.921875 C 4.734375 -3.703125 4.832031 -3.441406 4.875 -3.140625 C 4.925781 -2.847656 4.910156 -2.53125 4.828125 -2.1875 C 4.753906 -1.875 4.628906 -1.578125 4.453125 -1.296875 C 4.285156 -1.023438 4.082031 -0.785156 3.84375 -0.578125 C 3.601562 -0.367188 3.332031 -0.203125 3.03125 -0.078125 C 2.738281 0.0351562 2.425781 0.09375 2.09375 0.09375 Z M 2.15625 -0.6875 C 2.40625 -0.6875 2.625 -0.726562 2.8125 -0.8125 C 3.007812 -0.90625 3.175781 -1.03125 3.3125 -1.1875 C 3.457031 -1.34375 3.578125 -1.519531 3.671875 -1.71875 C 3.773438 -1.925781 3.851562 -2.140625 3.90625 -2.359375 C 3.957031 -2.554688 3.976562 -2.742188 3.96875 -2.921875 C 3.96875 -3.109375 3.929688 -3.273438 3.859375 -3.421875 C 3.796875 -3.566406 3.691406 -3.675781 3.546875 -3.75 C 3.410156 -3.832031 3.226562 -3.875 3 -3.875 C 2.757812 -3.875 2.539062 -3.828125 2.34375 -3.734375 C 2.15625 -3.648438 1.988281 -3.53125 1.84375 -3.375 C 1.695312 -3.21875 1.578125 -3.035156 1.484375 -2.828125 C 1.390625 -2.628906 1.316406 -2.414062 1.265625 -2.1875 C 1.210938 -1.988281 1.1875 -1.800781 1.1875 -1.625 C 1.195312 -1.445312 1.234375 -1.285156 1.296875 -1.140625 C 1.367188 -0.992188 1.472656 -0.878906 1.609375 -0.796875 C 1.742188 -0.722656 1.925781 -0.6875 2.15625 -0.6875 Z M 2.15625 -0.6875 "/></g></g></g><g fill="#737373" fill-opacity="1"><g transform="translate(74.15316, 8.61841)"><g><path d="M 1.75 0.109375 C 1.445312 0.109375 1.203125 0.0507812 1.015625 -0.0625 C 0.828125 -0.175781 0.6875 -0.328125 0.59375 -0.515625 C 0.5 -0.710938 0.445312 -0.929688 0.4375 -1.171875 C 0.425781 -1.410156 0.453125 -1.660156 0.515625 -1.921875 L 1.125 -4.59375 L 2.03125 -4.59375 L 1.40625 -1.859375 C 1.363281 -1.703125 1.335938 -1.554688 1.328125 -1.421875 C 1.328125 -1.285156 1.34375 -1.160156 1.375 -1.046875 C 1.40625 -0.941406 1.46875 -0.859375 1.5625 -0.796875 C 1.664062 -0.734375 1.804688 -0.703125 1.984375 -0.703125 C 2.203125 -0.703125 2.421875 -0.757812 2.640625 -0.875 C 2.867188 -0.988281 3.066406 -1.15625 3.234375 -1.375 C 3.410156 -1.59375 3.535156 -1.867188 3.609375 -2.203125 L 4.15625 -4.59375 L 5.0625 -4.59375 L 4 0 L 3.125 0 L 3.265625 -0.625 C 3.148438 -0.488281 3.007812 -0.363281 2.84375 -0.25 C 2.6875 -0.144531 2.507812 -0.0625 2.3125 0 C 2.125 0.0703125 1.9375 0.109375 1.75 0.109375 Z M 1.75 0.109375 "/></g></g></g><g fill="#737373" fill-opacity="1"><g transform="translate(80.156835, 8.61841)"><g><path d="M 4.625 -6.5 L 5.53125 -6.5 L 4.03125 0 L 3.1875 0 L 3.265625 -0.515625 C 3.066406 -0.316406 2.84375 -0.164062 2.59375 -0.0625 C 2.351562 0.0390625 2.085938 0.09375 1.796875 0.09375 C 1.484375 0.09375 1.21875 0.03125 1 -0.09375 C 0.789062 -0.226562 0.625 -0.410156 0.5 -0.640625 C 0.382812 -0.867188 0.316406 -1.128906 0.296875 -1.421875 C 0.285156 -1.722656 0.316406 -2.046875 0.390625 -2.390625 C 0.460938 -2.703125 0.570312 -2.992188 0.71875 -3.265625 C 0.863281 -3.546875 1.039062 -3.789062 1.25 -4 C 1.457031 -4.21875 1.6875 -4.382812 1.9375 -4.5 C 2.195312 -4.625 2.476562 -4.6875 2.78125 -4.6875 C 3.082031 -4.6875 3.335938 -4.625 3.546875 -4.5 C 3.765625 -4.382812 3.929688 -4.222656 4.046875 -4.015625 Z M 3.75 -2.390625 C 3.789062 -2.585938 3.8125 -2.773438 3.8125 -2.953125 C 3.8125 -3.128906 3.78125 -3.285156 3.71875 -3.421875 C 3.664062 -3.566406 3.570312 -3.675781 3.4375 -3.75 C 3.3125 -3.832031 3.144531 -3.875 2.9375 -3.875 C 2.71875 -3.875 2.515625 -3.828125 2.328125 -3.734375 C 2.148438 -3.648438 1.988281 -3.53125 1.84375 -3.375 C 1.707031 -3.226562 1.585938 -3.050781 1.484375 -2.84375 C 1.390625 -2.644531 1.320312 -2.4375 1.28125 -2.21875 C 1.207031 -1.945312 1.1875 -1.695312 1.21875 -1.46875 C 1.25 -1.238281 1.332031 -1.054688 1.46875 -0.921875 C 1.613281 -0.796875 1.820312 -0.734375 2.09375 -0.734375 C 2.394531 -0.734375 2.65625 -0.804688 2.875 -0.953125 C 3.09375 -1.097656 3.273438 -1.296875 3.421875 -1.546875 C 3.566406 -1.796875 3.675781 -2.078125 3.75 -2.390625 Z M 3.75 -2.390625 "/></g></g></g><g fill="#737373" fill-opacity="1"><g transform="translate(86.197259, 8.61841)"><g/></g></g><g fill="#737373" fill-opacity="1"><g transform="translate(89.490809, 8.61841)"><g><path d="M 2.3125 0.078125 C 2.03125 0.078125 1.757812 0.0351562 1.5 -0.046875 C 1.25 -0.128906 1.023438 -0.25 0.828125 -0.40625 C 0.628906 -0.5625 0.472656 -0.753906 0.359375 -0.984375 C 0.242188 -1.210938 0.1875 -1.476562 0.1875 -1.78125 L 1.125 -1.953125 C 1.125 -1.566406 1.238281 -1.273438 1.46875 -1.078125 C 1.695312 -0.878906 2.007812 -0.78125 2.40625 -0.78125 C 2.675781 -0.78125 2.914062 -0.828125 3.125 -0.921875 C 3.332031 -1.023438 3.492188 -1.160156 3.609375 -1.328125 C 3.722656 -1.492188 3.78125 -1.6875 3.78125 -1.90625 C 3.78125 -2.082031 3.742188 -2.234375 3.671875 -2.359375 C 3.609375 -2.492188 3.515625 -2.609375 3.390625 -2.703125 C 3.273438 -2.796875 3.144531 -2.882812 3 -2.96875 C 2.851562 -3.050781 2.703125 -3.128906 2.546875 -3.203125 C 2.390625 -3.273438 2.234375 -3.359375 2.078125 -3.453125 C 1.929688 -3.546875 1.800781 -3.648438 1.6875 -3.765625 C 1.570312 -3.878906 1.476562 -4.015625 1.40625 -4.171875 C 1.332031 -4.335938 1.296875 -4.53125 1.296875 -4.75 C 1.296875 -5.007812 1.347656 -5.25 1.453125 -5.46875 C 1.566406 -5.695312 1.71875 -5.894531 1.90625 -6.0625 C 2.101562 -6.238281 2.332031 -6.367188 2.59375 -6.453125 C 2.851562 -6.546875 3.128906 -6.59375 3.421875 -6.59375 C 3.703125 -6.59375 3.96875 -6.550781 4.21875 -6.46875 C 4.46875 -6.382812 4.679688 -6.257812 4.859375 -6.09375 C 5.035156 -5.925781 5.160156 -5.722656 5.234375 -5.484375 L 4.453125 -5.109375 C 4.410156 -5.253906 4.335938 -5.378906 4.234375 -5.484375 C 4.128906 -5.585938 4.003906 -5.664062 3.859375 -5.71875 C 3.710938 -5.769531 3.5625 -5.796875 3.40625 -5.796875 C 3.207031 -5.796875 3.019531 -5.753906 2.84375 -5.671875 C 2.664062 -5.597656 2.519531 -5.484375 2.40625 -5.328125 C 2.300781 -5.179688 2.25 -5.015625 2.25 -4.828125 C 2.25 -4.648438 2.289062 -4.5 2.375 -4.375 C 2.46875 -4.25 2.585938 -4.132812 2.734375 -4.03125 C 2.890625 -3.9375 3.050781 -3.84375 3.21875 -3.75 C 3.394531 -3.664062 3.570312 -3.570312 3.75 -3.46875 C 3.925781 -3.375 4.085938 -3.257812 4.234375 -3.125 C 4.390625 -3 4.507812 -2.84375 4.59375 -2.65625 C 4.6875 -2.46875 4.734375 -2.242188 4.734375 -1.984375 C 4.734375 -1.691406 4.671875 -1.414062 4.546875 -1.15625 C 4.421875 -0.90625 4.242188 -0.6875 4.015625 -0.5 C 3.796875 -0.320312 3.539062 -0.179688 3.25 -0.078125 C 2.957031 0.0234375 2.644531 0.078125 2.3125 0.078125 Z M 2.3125 0.078125 "/></g></g></g><g fill="#737373" fill-opacity="1"><g transform="translate(95.416392, 8.61841)"><g><path d="M 2.09375 0.09375 C 1.75 0.09375 1.445312 0.03125 1.1875 -0.09375 C 0.9375 -0.226562 0.734375 -0.40625 0.578125 -0.625 C 0.421875 -0.851562 0.320312 -1.113281 0.28125 -1.40625 C 0.238281 -1.707031 0.257812 -2.023438 0.34375 -2.359375 C 0.414062 -2.679688 0.535156 -2.976562 0.703125 -3.25 C 0.867188 -3.53125 1.070312 -3.773438 1.3125 -3.984375 C 1.5625 -4.191406 1.832031 -4.351562 2.125 -4.46875 C 2.425781 -4.59375 2.742188 -4.65625 3.078125 -4.65625 C 3.421875 -4.65625 3.71875 -4.585938 3.96875 -4.453125 C 4.226562 -4.328125 4.429688 -4.148438 4.578125 -3.921875 C 4.734375 -3.703125 4.832031 -3.441406 4.875 -3.140625 C 4.925781 -2.847656 4.910156 -2.53125 4.828125 -2.1875 C 4.753906 -1.875 4.628906 -1.578125 4.453125 -1.296875 C 4.285156 -1.023438 4.082031 -0.785156 3.84375 -0.578125 C 3.601562 -0.367188 3.332031 -0.203125 3.03125 -0.078125 C 2.738281 0.0351562 2.425781 0.09375 2.09375 0.09375 Z M 2.15625 -0.6875 C 2.40625 -0.6875 2.625 -0.726562 2.8125 -0.8125 C 3.007812 -0.90625 3.175781 -1.03125 3.3125 -1.1875 C 3.457031 -1.34375 3.578125 -1.519531 3.671875 -1.71875 C 3.773438 -1.925781 3.851562 -2.140625 3.90625 -2.359375 C 3.957031 -2.554688 3.976562 -2.742188 3.96875 -2.921875 C 3.96875 -3.109375 3.929688 -3.273438 3.859375 -3.421875 C 3.796875 -3.566406 3.691406 -3.675781 3.546875 -3.75 C 3.410156 -3.832031 3.226562 -3.875 3 -3.875 C 2.757812 -3.875 2.539062 -3.828125 2.34375 -3.734375 C 2.15625 -3.648438 1.988281 -3.53125 1.84375 -3.375 C 1.695312 -3.21875 1.578125 -3.035156 1.484375 -2.828125 C 1.390625 -2.628906 1.316406 -2.414062 1.265625 -2.1875 C 1.210938 -1.988281 1.1875 -1.800781 1.1875 -1.625 C 1.195312 -1.445312 1.234375 -1.285156 1.296875 -1.140625 C 1.367188 -0.992188 1.472656 -0.878906 1.609375 -0.796875 C 1.742188 -0.722656 1.925781 -0.6875 2.15625 -0.6875 Z M 2.15625 -0.6875 "/></g></g></g><g fill="#737373" fill-opacity="1"><g transform="translate(101.346572, 8.61841)"><g><path d="M 1.078125 0.09375 C 0.742188 0.09375 0.523438 0.00390625 0.421875 -0.171875 C 0.328125 -0.359375 0.320312 -0.625 0.40625 -0.96875 L 1.6875 -6.5 L 2.578125 -6.5 L 1.296875 -0.96875 C 1.273438 -0.863281 1.28125 -0.789062 1.3125 -0.75 C 1.351562 -0.707031 1.425781 -0.6875 1.53125 -0.6875 C 1.570312 -0.6875 1.625 -0.691406 1.6875 -0.703125 C 1.757812 -0.722656 1.828125 -0.738281 1.890625 -0.75 L 1.78125 0.015625 C 1.675781 0.0351562 1.554688 0.0507812 1.421875 0.0625 C 1.296875 0.0820312 1.179688 0.09375 1.078125 0.09375 Z M 1.078125 0.09375 "/></g></g></g><g fill="#737373" fill-opacity="1"><g transform="translate(104.612562, 8.61841)"><g><path d="M 1.75 0.109375 C 1.445312 0.109375 1.203125 0.0507812 1.015625 -0.0625 C 0.828125 -0.175781 0.6875 -0.328125 0.59375 -0.515625 C 0.5 -0.710938 0.445312 -0.929688 0.4375 -1.171875 C 0.425781 -1.410156 0.453125 -1.660156 0.515625 -1.921875 L 1.125 -4.59375 L 2.03125 -4.59375 L 1.40625 -1.859375 C 1.363281 -1.703125 1.335938 -1.554688 1.328125 -1.421875 C 1.328125 -1.285156 1.34375 -1.160156 1.375 -1.046875 C 1.40625 -0.941406 1.46875 -0.859375 1.5625 -0.796875 C 1.664062 -0.734375 1.804688 -0.703125 1.984375 -0.703125 C 2.203125 -0.703125 2.421875 -0.757812 2.640625 -0.875 C 2.867188 -0.988281 3.066406 -1.15625 3.234375 -1.375 C 3.410156 -1.59375 3.535156 -1.867188 3.609375 -2.203125 L 4.15625 -4.59375 L 5.0625 -4.59375 L 4 0 L 3.125 0 L 3.265625 -0.625 C 3.148438 -0.488281 3.007812 -0.363281 2.84375 -0.25 C 2.6875 -0.144531 2.507812 -0.0625 2.3125 0 C 2.125 0.0703125 1.9375 0.109375 1.75 0.109375 Z M 1.75 0.109375 "/></g></g></g><g fill="#737373" fill-opacity="1"><g transform="translate(110.616238, 8.61841)"><g><path d="M 1.671875 0.09375 C 1.378906 0.09375 1.144531 0.0351562 0.96875 -0.078125 C 0.800781 -0.191406 0.691406 -0.351562 0.640625 -0.5625 C 0.597656 -0.769531 0.601562 -1.007812 0.65625 -1.28125 L 1.25 -3.859375 L 0.53125 -3.859375 L 0.6875 -4.59375 L 1.4375 -4.59375 L 1.671875 -5.6875 L 2.703125 -6.40625 L 2.296875 -4.59375 L 3.484375 -4.59375 L 3.3125 -3.859375 L 2.125 -3.859375 L 1.53125 -1.296875 C 1.5 -1.140625 1.492188 -1.015625 1.515625 -0.921875 C 1.546875 -0.828125 1.59375 -0.757812 1.65625 -0.71875 C 1.726562 -0.6875 1.8125 -0.671875 1.90625 -0.671875 C 2.019531 -0.671875 2.128906 -0.6875 2.234375 -0.71875 C 2.347656 -0.75 2.441406 -0.785156 2.515625 -0.828125 L 2.390625 -0.015625 C 2.316406 0.015625 2.210938 0.0390625 2.078125 0.0625 C 1.941406 0.0820312 1.804688 0.09375 1.671875 0.09375 Z M 1.671875 0.09375 "/></g></g></g><g fill="#737373" fill-opacity="1"><g transform="translate(114.653924, 8.61841)"><g><path d="M 1.4375 -5.546875 L 1.671875 -6.5 L 2.640625 -6.5 L 2.421875 -5.546875 Z M 0.203125 0 L 1.25 -4.59375 L 2.15625 -4.59375 L 1.09375 0 Z M 0.203125 0 "/></g></g></g><g fill="#737373" fill-opacity="1"><g transform="translate(117.75455, 8.61841)"><g><path d="M 2.09375 0.09375 C 1.75 0.09375 1.445312 0.03125 1.1875 -0.09375 C 0.9375 -0.226562 0.734375 -0.40625 0.578125 -0.625 C 0.421875 -0.851562 0.320312 -1.113281 0.28125 -1.40625 C 0.238281 -1.707031 0.257812 -2.023438 0.34375 -2.359375 C 0.414062 -2.679688 0.535156 -2.976562 0.703125 -3.25 C 0.867188 -3.53125 1.070312 -3.773438 1.3125 -3.984375 C 1.5625 -4.191406 1.832031 -4.351562 2.125 -4.46875 C 2.425781 -4.59375 2.742188 -4.65625 3.078125 -4.65625 C 3.421875 -4.65625 3.71875 -4.585938 3.96875 -4.453125 C 4.226562 -4.328125 4.429688 -4.148438 4.578125 -3.921875 C 4.734375 -3.703125 4.832031 -3.441406 4.875 -3.140625 C 4.925781 -2.847656 4.910156 -2.53125 4.828125 -2.1875 C 4.753906 -1.875 4.628906 -1.578125 4.453125 -1.296875 C 4.285156 -1.023438 4.082031 -0.785156 3.84375 -0.578125 C 3.601562 -0.367188 3.332031 -0.203125 3.03125 -0.078125 C 2.738281 0.0351562 2.425781 0.09375 2.09375 0.09375 Z M 2.15625 -0.6875 C 2.40625 -0.6875 2.625 -0.726562 2.8125 -0.8125 C 3.007812 -0.90625 3.175781 -1.03125 3.3125 -1.1875 C 3.457031 -1.34375 3.578125 -1.519531 3.671875 -1.71875 C 3.773438 -1.925781 3.851562 -2.140625 3.90625 -2.359375 C 3.957031 -2.554688 3.976562 -2.742188 3.96875 -2.921875 C 3.96875 -3.109375 3.929688 -3.273438 3.859375 -3.421875 C 3.796875 -3.566406 3.691406 -3.675781 3.546875 -3.75 C 3.410156 -3.832031 3.226562 -3.875 3 -3.875 C 2.757812 -3.875 2.539062 -3.828125 2.34375 -3.734375 C 2.15625 -3.648438 1.988281 -3.53125 1.84375 -3.375 C 1.695312 -3.21875 1.578125 -3.035156 1.484375 -2.828125 C 1.390625 -2.628906 1.316406 -2.414062 1.265625 -2.1875 C 1.210938 -1.988281 1.1875 -1.800781 1.1875 -1.625 C 1.195312 -1.445312 1.234375 -1.285156 1.296875 -1.140625 C 1.367188 -0.992188 1.472656 -0.878906 1.609375 -0.796875 C 1.742188 -0.722656 1.925781 -0.6875 2.15625 -0.6875 Z M 2.15625 -0.6875 "/></g></g></g><g fill="#737373" fill-opacity="1"><g transform="translate(123.684731, 8.61841)"><g><path d="M 0.203125 0 L 1.25 -4.59375 L 2.15625 -4.59375 L 2 -4 C 2.21875 -4.226562 2.460938 -4.394531 2.734375 -4.5 C 3.003906 -4.613281 3.265625 -4.671875 3.515625 -4.671875 C 3.816406 -4.671875 4.0625 -4.617188 4.25 -4.515625 C 4.4375 -4.410156 4.578125 -4.265625 4.671875 -4.078125 C 4.765625 -3.890625 4.816406 -3.679688 4.828125 -3.453125 C 4.835938 -3.222656 4.8125 -2.984375 4.75 -2.734375 L 4.125 0 L 3.21875 0 L 3.84375 -2.71875 C 3.882812 -2.863281 3.90625 -3.003906 3.90625 -3.140625 C 3.914062 -3.273438 3.90625 -3.394531 3.875 -3.5 C 3.84375 -3.601562 3.78125 -3.6875 3.6875 -3.75 C 3.59375 -3.8125 3.460938 -3.84375 3.296875 -3.84375 C 3.117188 -3.84375 2.941406 -3.804688 2.765625 -3.734375 C 2.585938 -3.660156 2.425781 -3.5625 2.28125 -3.4375 C 2.132812 -3.3125 2.003906 -3.171875 1.890625 -3.015625 C 1.785156 -2.859375 1.71875 -2.695312 1.6875 -2.53125 L 1.09375 0 Z M 0.203125 0 "/></g></g></g><g fill="#737373" fill-opacity="1"><g transform="translate(129.697594, 8.61841)"><g><path d="M 1.6875 0.09375 C 1.445312 0.09375 1.222656 0.0625 1.015625 0 C 0.816406 -0.0703125 0.644531 -0.164062 0.5 -0.28125 C 0.351562 -0.40625 0.238281 -0.539062 0.15625 -0.6875 C 0.0703125 -0.84375 0.0195312 -1 0 -1.15625 L 0.78125 -1.421875 C 0.789062 -1.285156 0.832031 -1.160156 0.90625 -1.046875 C 0.988281 -0.929688 1.097656 -0.835938 1.234375 -0.765625 C 1.367188 -0.703125 1.53125 -0.671875 1.71875 -0.671875 C 1.925781 -0.671875 2.097656 -0.707031 2.234375 -0.78125 C 2.378906 -0.851562 2.488281 -0.945312 2.5625 -1.0625 C 2.644531 -1.1875 2.6875 -1.3125 2.6875 -1.4375 C 2.6875 -1.570312 2.648438 -1.675781 2.578125 -1.75 C 2.503906 -1.832031 2.40625 -1.894531 2.28125 -1.9375 C 2.164062 -1.988281 2.035156 -2.035156 1.890625 -2.078125 C 1.753906 -2.117188 1.613281 -2.164062 1.46875 -2.21875 C 1.332031 -2.269531 1.207031 -2.332031 1.09375 -2.40625 C 0.976562 -2.488281 0.882812 -2.597656 0.8125 -2.734375 C 0.738281 -2.867188 0.703125 -3.035156 0.703125 -3.234375 C 0.703125 -3.460938 0.742188 -3.664062 0.828125 -3.84375 C 0.921875 -4.019531 1.046875 -4.164062 1.203125 -4.28125 C 1.359375 -4.40625 1.539062 -4.5 1.75 -4.5625 C 1.957031 -4.632812 2.175781 -4.671875 2.40625 -4.671875 C 2.675781 -4.671875 2.914062 -4.628906 3.125 -4.546875 C 3.34375 -4.460938 3.523438 -4.347656 3.671875 -4.203125 C 3.828125 -4.054688 3.9375 -3.890625 4 -3.703125 L 3.25 -3.390625 C 3.195312 -3.554688 3.097656 -3.691406 2.953125 -3.796875 C 2.804688 -3.898438 2.613281 -3.953125 2.375 -3.953125 C 2.144531 -3.953125 1.953125 -3.898438 1.796875 -3.796875 C 1.640625 -3.691406 1.5625 -3.535156 1.5625 -3.328125 C 1.5625 -3.210938 1.597656 -3.113281 1.671875 -3.03125 C 1.742188 -2.957031 1.835938 -2.894531 1.953125 -2.84375 C 2.078125 -2.789062 2.207031 -2.742188 2.34375 -2.703125 C 2.488281 -2.660156 2.632812 -2.609375 2.78125 -2.546875 C 2.925781 -2.492188 3.054688 -2.425781 3.171875 -2.34375 C 3.296875 -2.257812 3.390625 -2.148438 3.453125 -2.015625 C 3.523438 -1.878906 3.5625 -1.707031 3.5625 -1.5 C 3.5625 -1.28125 3.515625 -1.070312 3.421875 -0.875 C 3.328125 -0.6875 3.191406 -0.519531 3.015625 -0.375 C 2.847656 -0.226562 2.648438 -0.113281 2.421875 -0.03125 C 2.203125 0.0507812 1.957031 0.09375 1.6875 0.09375 Z M 1.6875 0.09375 "/></g></g></g></g></g></svg>